<?xml version="1.0" standalone="no"?>
<!DOCTYPE svg PUBLIC "-//W3C//DTD SVG 20010904//EN"
 "http://www.w3.org/TR/2001/REC-SVG-20010904/DTD/svg10.dtd">
<svg version="1.0" xmlns="http://www.w3.org/2000/svg"
 width="300.000000pt" height="219.000000pt" viewBox="0 0 300.000000 219.000000"
 preserveAspectRatio="xMidYMid meet">
<metadata>
Created by potrace 1.10, written by Peter Selinger 2001-2011
</metadata>
<g transform="translate(0.000000,219.000000) scale(0.100000,-0.100000)"
fill="#32cd32" stroke="none">
<path d="M2138 1995 c-2 -3 -18 -7 -34 -9 -44 -6 -214 -44 -254 -56 -19 -6
-47 -13 -61 -15 -15 -2 -52 -11 -82 -20 -51 -15 -55 -18 -48 -38 20 -52 30
-259 17 -337 -22 -129 -22 -125 -6 -215 12 -65 12 -73 -8 -117 -12 -26 -26
-49 -31 -53 -5 -3 -12 18 -15 47 -12 109 -13 113 -15 66 0 -28 -6 -48 -12 -48
-7 0 -8 -7 -4 -17 14 -35 15 -70 1 -70 -8 0 -14 10 -13 21 1 66 -41 157 -89
195 -40 31 -194 73 -194 52 0 -4 9 -16 21 -27 12 -10 38 -48 59 -84 53 -90 89
-129 130 -140 l35 -10 -30 25 c-16 13 -33 24 -36 25 -10 0 -94 130 -85 130 2
0 24 -12 50 -26 25 -14 46 -23 46 -20 0 3 -17 14 -37 25 -21 11 -51 31 -68 45
-27 23 -28 25 -9 26 11 0 44 -12 72 -26 38 -19 59 -38 78 -70 14 -24 22 -48
19 -55 -7 -10 -1 -27 25 -79 4 -8 22 -16 41 -17 107 -8 377 -40 454 -54 52
-10 74 -8 160 10 132 29 260 73 370 128 133 66 334 204 314 216 -3 1 -32 28
-66 61 l-61 59 -32 -33 -33 -34 43 -39 c35 -33 40 -41 27 -49 -9 -4 -22 -14
-29 -21 -68 -64 -318 -192 -473 -242 -118 -39 -171 -46 -250 -33 -175 27 -257
37 -337 37 -57 1 -58 1 -39 20 43 43 54 80 46 155 -10 107 -9 123 19 225 21
79 25 114 23 208 -1 62 0 113 3 114 3 0 16 3 30 5 14 2 52 9 85 15 33 5 65 11
70 13 6 1 45 8 87 16 68 11 110 31 97 45 -3 2 -43 -5 -89 -16 -47 -10 -130
-26 -185 -35 -77 -12 -104 -20 -116 -36 -14 -19 -17 -19 -22 -3 -4 9 -5 20 -2
24 3 7 59 22 130 35 11 2 45 11 75 19 85 24 221 49 228 42 3 -3 8 -17 9 -30 3
-19 0 -23 -13 -18 -15 6 -16 0 -8 -63 5 -38 9 -127 8 -199 -1 -161 -28 -297
-88 -447 -24 -60 -40 -108 -36 -108 9 0 95 182 120 255 43 123 61 242 59 390
-1 161 -20 280 -41 260z m-421 -240 c0 -8 -4 -12 -9 -9 -5 3 -6 10 -3 15 9 13
12 11 12 -6z m1110 -318 l42 -42 -40 -29 -41 -29 16 25 c9 15 13 28 9 30 -20
9 -64 68 -59 77 12 19 30 11 73 -32z"/>
<path d="M2204 1914 c3 -9 6 -29 6 -45 0 -29 0 -29 61 -29 l61 0 -7 -52 c-9
-73 -51 -228 -85 -312 -28 -71 -68 -146 -137 -257 -56 -91 -32 -81 41 17 135
182 225 402 254 620 l8 62 -50 6 c-28 3 -75 6 -105 6 -44 0 -52 -3 -47 -16z
m165 -27 c8 -10 7 -19 -4 -33 -13 -17 -16 -17 -25 -3 -6 10 -25 16 -56 18 -52
1 -59 4 -49 20 9 16 120 14 134 -2z"/>
<path d="M98 1849 c36 -93 189 -196 301 -204 44 -3 140 22 144 37 4 15 -111
90 -161 104 -30 9 -74 25 -99 36 -61 27 -175 68 -190 68 -8 0 -7 -12 5 -41z
m156 -40 c64 -23 132 -54 152 -70 24 -19 44 -27 56 -23 11 3 20 0 24 -11 8
-20 6 -22 -31 -29 -19 -4 -23 -3 -12 2 11 4 -14 7 -60 7 -67 0 -84 4 -125 27
-58 35 -151 138 -124 138 3 0 57 -18 120 -41z m202 -87 c-4 -3 -14 2 -24 12
-16 18 -16 18 6 6 13 -6 21 -14 18 -18z"/>
<path d="M430 1863 c0 -19 113 -134 149 -152 20 -11 63 -22 96 -26 56 -7 59
-6 40 9 -11 8 -31 16 -45 16 -42 1 -110 38 -151 82 -22 22 -37 43 -34 46 2 3
28 -9 56 -26 57 -36 72 -41 38 -12 l-24 19 28 1 c55 0 134 -30 171 -66 20 -19
36 -36 36 -38 0 -15 -120 15 -158 40 -13 9 -21 11 -17 4 14 -22 112 -59 176
-65 l64 -6 -62 60 c-69 66 -107 82 -242 101 -41 6 -84 13 -97 16 -13 4 -24 2
-24 -3z"/>
<path d="M743 1837 c2 -7 41 -35 88 -64 82 -51 149 -79 213 -89 61 -10 72 -13
115 -28 24 -9 45 -15 47 -13 8 8 -60 125 -84 144 -47 39 -144 61 -270 62 -85
0 -112 -3 -109 -12z m289 -33 c54 -17 103 -57 117 -96 10 -26 9 -27 -14 -18
-39 15 -128 61 -160 83 -24 17 -27 18 -16 3 8 -10 41 -31 73 -47 32 -16 58
-31 58 -34 0 -7 -101 25 -148 46 -24 11 -64 33 -90 50 l-47 30 47 -4 c25 -2
52 -1 59 4 15 9 54 3 121 -17z"/>
<path d="M917 1799 c7 -7 15 -10 18 -7 3 3 -2 9 -12 12 -14 6 -15 5 -6 -5z"/>
<path d="M2422 1800 c-11 -45 -14 -42 53 -60 28 -7 51 -14 53 -16 7 -5 -94
-194 -141 -263 -62 -93 -78 -112 -202 -239 -55 -57 -102 -105 -104 -107 -2 -3
-2 -5 2 -5 12 0 162 125 222 184 81 81 133 148 198 254 63 103 122 232 110
242 -7 6 -160 50 -175 50 -3 0 -10 -18 -16 -40z m136 -21 c18 -7 22 -14 16
-32 -10 -33 -14 -34 -32 -12 -10 12 -32 25 -51 31 -19 5 -36 15 -39 23 -3 10
5 12 39 6 24 -4 54 -11 67 -16z"/>
<path d="M1172 1783 c20 -21 55 -65 78 -98 22 -33 78 -98 124 -145 46 -47 89
-96 96 -109 11 -21 14 -22 21 -8 10 17 15 132 8 160 -11 38 -71 108 -122 142
-53 35 -194 95 -225 95 -11 0 -6 -11 20 -37z m78 -20 c14 -9 39 -28 55 -42 17
-14 24 -19 18 -11 -7 8 -13 18 -13 23 0 10 87 -50 113 -78 32 -35 66 -118 60
-147 -5 -25 -23 -40 -23 -20 0 5 -9 19 -20 32 -11 13 -20 18 -20 12 0 -15
-111 104 -144 154 -14 22 -35 51 -46 67 -24 31 -16 35 20 10z"/>
<path d="M1366 1621 c21 -40 40 -67 42 -61 2 6 -2 19 -10 28 -8 9 -23 34 -33
55 -11 21 -24 41 -29 44 -5 4 8 -26 30 -66z"/>
<path d="M2375 1633 c-16 -49 -52 -134 -81 -191 -28 -56 -46 -97 -38 -91 44
37 224 305 224 334 0 9 -54 35 -71 35 -3 0 -18 -39 -34 -87z m65 40 c0 -13
-45 -102 -52 -103 -6 0 3 33 23 88 8 20 29 31 29 15z"/>
<path d="M2608 1669 c-10 -17 -18 -34 -18 -39 0 -5 23 -22 51 -38 l50 -29
-118 -120 c-127 -130 -231 -212 -364 -287 -93 -52 -125 -74 -118 -80 8 -8 224
102 306 155 117 78 234 181 319 282 41 48 74 91 74 95 0 6 -151 92 -161 92 -2
0 -12 -14 -21 -31z m90 -36 c26 -15 48 -28 50 -29 4 -3 -28 -54 -45 -72 -7 -7
-13 -10 -13 -5 0 5 5 14 11 20 16 16 -4 47 -46 72 -20 11 -33 26 -30 31 9 15
22 12 73 -17z m-18 -127 c0 -2 -8 -10 -17 -17 -16 -13 -17 -12 -4 4 13 16 21
21 21 13z"/>
<path d="M805 1669 c-22 -5 -56 -6 -77 -3 -55 7 -159 -13 -230 -44 -35 -16
-81 -35 -103 -42 -22 -7 -44 -16 -48 -20 -5 -4 34 -15 86 -25 107 -20 231 -17
288 7 31 13 138 124 128 131 -2 2 -22 0 -44 -4z m-101 -34 c-20 -15 -20 -15
69 12 24 7 21 -7 -6 -39 -24 -27 -68 -51 -99 -52 -9 -1 -20 -4 -24 -8 -4 -5
-27 -8 -50 -8 -24 0 -45 3 -47 8 -3 4 26 23 64 42 37 19 67 36 65 38 -2 2 -35
-12 -72 -31 -67 -33 -174 -58 -174 -40 0 22 197 90 269 92 24 1 24 1 5 -14z"/>
<path d="M995 1665 c-5 -2 -27 -6 -47 -10 -25 -4 -61 -26 -110 -65 -40 -33
-76 -60 -80 -60 -5 0 -8 -5 -8 -11 0 -7 12 -9 33 -5 17 3 73 6 122 7 50 0 108
5 130 11 36 9 170 86 163 94 -2 1 -15 5 -28 7 -14 3 -38 10 -53 16 -22 9 -27
8 -21 -2 6 -9 5 -9 -7 0 -15 12 -78 24 -94 18z m45 -36 c-19 -6 -12 -8 28 -5
44 3 52 0 50 -12 -4 -22 -55 -49 -103 -56 -22 -3 -55 -8 -74 -12 -22 -5 -36
-3 -41 6 -6 9 -13 9 -28 1 -11 -6 -29 -11 -39 -11 -13 0 -7 9 21 33 55 46 104
66 161 65 41 0 46 -2 25 -9z"/>
<path d="M917 1573 c-4 -3 -7 -11 -7 -17 0 -6 5 -5 12 2 6 6 9 14 7 17 -3 3
-9 2 -12 -2z"/>
<path d="M60 1624 c0 -28 106 -158 163 -201 152 -112 265 -145 574 -167 114
-9 272 -33 358 -56 44 -12 85 -23 90 -24 6 -1 32 -12 59 -24 65 -29 71 -28 45
11 -129 189 -369 286 -709 286 -144 1 -202 6 -312 32 -113 26 -197 68 -237
116 -17 20 -31 33 -31 27z m166 -143 c5 -6 21 -12 36 -15 15 -2 32 -7 37 -10
19 -12 240 -36 376 -40 153 -6 246 -16 315 -37 53 -16 171 -72 197 -93 10 -9
38 -29 61 -46 24 -17 41 -34 39 -37 -3 -3 -36 2 -74 11 -236 54 -335 69 -528
81 -104 6 -229 34 -306 68 -30 14 -59 26 -66 28 -11 4 -29 17 -101 76 -19 15
-22 22 -11 23 8 0 19 -4 25 -9z"/>
<path d="M1534 1565 c4 -27 7 -77 6 -109 -1 -72 28 -246 42 -246 7 0 8 15 4
38 -4 20 -9 82 -12 137 -3 55 -7 108 -9 118 -2 9 1 17 6 17 15 0 39 -65 39
-105 0 -20 4 -34 9 -30 6 3 8 14 6 25 -3 13 1 17 11 13 28 -11 13 26 -42 103
-31 44 -59 81 -62 84 -2 3 -2 -17 2 -45z"/>
<path d="M1160 1551 c-25 -10 -58 -24 -75 -31 l-30 -12 24 -9 c14 -5 32 -11
40 -13 9 -2 39 -13 66 -25 28 -13 66 -29 85 -38 36 -15 200 -27 200 -14 0 4
-25 33 -55 64 -88 93 -162 115 -255 78z m172 -33 c33 -16 39 -22 26 -27 -15
-5 -13 -8 11 -19 16 -7 32 -20 35 -29 10 -25 -110 -10 -171 20 l-47 25 51 7
c29 4 62 4 74 0 15 -5 19 -4 14 5 -5 8 -32 9 -97 4 -75 -6 -90 -4 -86 7 6 18
85 39 120 33 15 -3 46 -15 70 -26z"/>
<path d="M1866 1490 c-34 -11 -73 -45 -92 -82 -22 -42 -17 -42 24 1 40 42 77
57 117 47 41 -10 65 -45 65 -93 0 -27 4 -42 10 -38 6 3 10 28 10 55 0 81 -62
132 -134 110z"/>
<path d="M2649 1404 c-31 -33 -167 -140 -242 -189 -31 -21 -55 -40 -53 -42 11
-11 263 117 365 185 11 8 9 15 -10 41 -12 17 -26 31 -29 31 -4 0 -17 -12 -31
-26z m41 -24 c0 -5 -18 -21 -41 -35 -67 -43 -77 -41 -24 3 50 43 65 50 65 32z"/>
<path d="M230 1350 c0 -26 129 -139 197 -172 109 -54 175 -62 420 -49 242 14
323 21 323 31 0 3 -60 15 -132 24 -73 10 -141 20 -151 22 -9 1 -63 8 -120 14
-281 31 -398 57 -488 110 -27 16 -49 25 -49 20z m200 -110 c14 -4 68 -13 120
-20 52 -6 122 -15 155 -20 33 -5 92 -12 130 -16 81 -7 120 -22 65 -25 -151 -7
-294 -6 -339 1 -59 11 -184 64 -203 87 -10 12 -7 13 18 8 16 -4 40 -10 54 -15z"/>
<path d="M1612 1335 c0 -16 2 -22 5 -12 2 9 2 23 0 30 -3 6 -5 -1 -5 -18z"/>
<path d="M1490 1245 c0 -3 10 -16 21 -28 l21 -22 -11 22 c-11 22 -31 40 -31
28z"/>
<path d="M1349 1116 c-3 -3 -40 -6 -84 -6 -203 -4 -621 -87 -860 -170 -185
-64 -192 -68 -216 -116 -14 -30 -19 -54 -15 -72 3 -15 9 -38 12 -52 17 -78
118 -472 131 -513 8 -26 25 -54 36 -62 24 -17 58 -20 73 -7 22 21 400 129 514
148 14 3 52 9 85 15 179 32 434 44 632 30 92 -7 179 -14 193 -16 28 -4 149
-23 193 -31 72 -12 304 -77 407 -113 63 -23 122 -41 132 -41 43 0 63 51 136
344 40 157 72 300 72 318 0 45 -33 95 -73 112 -115 47 -391 131 -499 150 -71
13 -38 -10 40 -28 101 -23 253 -69 375 -113 128 -46 142 -63 133 -158 -3 -38
-15 -101 -26 -140 -11 -38 -24 -90 -30 -115 -25 -122 -73 -287 -87 -302 -27
-31 -47 -29 -163 12 -641 229 -1333 227 -1972 -6 -93 -33 -99 -34 -127 -19
-19 9 -33 26 -37 43 -3 15 -8 34 -11 42 -14 43 -114 458 -119 494 -10 69 12
98 98 134 186 77 543 166 788 196 69 8 193 18 275 22 91 4 142 10 130 15 -21
8 -129 12 -136 5z"/>
<path d="M1142 1064 c-249 -27 -484 -79 -727 -160 -172 -57 -189 -66 -204
-102 -11 -25 -4 -61 53 -290 72 -285 80 -309 108 -318 11 -3 90 18 186 49 266
88 470 128 761 148 358 25 780 -35 1132 -161 127 -45 140 -47 162 -22 16 17
147 522 147 566 0 49 -37 72 -195 125 -382 128 -715 182 -1102 180 -109 -1
-253 -8 -321 -15z m783 -29 c136 -18 228 -39 233 -55 2 -5 11 -10 20 -10 15 0
15 2 2 10 -11 8 -8 9 13 5 68 -13 77 -16 72 -25 -4 -6 5 -8 22 -4 49 9 450
-126 437 -147 -3 -5 -1 -9 4 -9 18 0 20 -27 7 -81 -8 -30 -32 -129 -55 -221
-22 -91 -48 -193 -58 -225 -18 -56 -19 -58 -53 -57 -18 0 -79 17 -134 37 -330
118 -786 182 -1109 157 -164 -13 -306 -32 -439 -60 -120 -24 -299 -70 -312
-79 -5 -4 -49 -21 -98 -37 -99 -33 -117 -29 -130 27 -4 19 -15 57 -22 84 -29
97 -94 370 -96 400 -4 57 0 77 15 72 8 -3 17 0 19 7 5 14 226 91 364 127 201
54 431 92 613 103 141 8 569 -4 685 -19z"/>
<path d="M1957 983 c-4 -3 -7 -12 -7 -19 0 -8 -11 -38 -25 -67 -13 -30 -27
-73 -31 -96 l-7 -41 36 0 c24 0 40 6 46 18 8 13 13 14 19 4 5 -7 16 -10 25 -6
12 4 17 1 17 -10 0 -19 25 -30 98 -43 59 -11 64 -8 65 42 1 35 17 39 17 4 0
-36 30 -68 68 -75 21 -3 53 -12 73 -19 53 -20 59 -8 59 110 0 106 -3 116 -36
133 -25 13 -43 0 -45 -32 -1 -15 -3 -12 -8 8 -7 35 -31 52 -57 41 -11 -4 -22
-7 -26 -7 -5 1 -8 -8 -8 -21 -1 -18 -4 -17 -18 12 -17 36 -58 56 -82 41 -9 -5
-13 -37 -13 -100 l0 -92 -37 102 c-20 56 -43 106 -51 111 -16 10 -63 12 -72 2z
m70 -17 c1 -1 20 -52 42 -115 31 -85 37 -111 25 -107 -9 3 -22 6 -30 6 -8 0
-14 9 -14 19 0 24 -5 27 -51 36 -31 6 -37 4 -42 -14 -4 -15 -13 -21 -32 -21
-18 0 -25 4 -22 13 2 6 19 53 38 104 31 88 34 92 58 86 15 -3 27 -6 28 -7z
m159 -29 c1 -1 17 -35 37 -76 l37 -74 0 67 c0 59 2 66 19 66 18 0 20 -9 23
-107 2 -60 3 -109 3 -110 -1 -1 -11 0 -23 4 -16 4 -35 29 -63 84 -21 44 -40
79 -42 79 -1 0 -1 -31 1 -70 3 -53 0 -70 -10 -70 -28 0 -33 18 -37 119 l-3
104 28 -7 c16 -4 29 -8 30 -9z m202 -151 c2 -96 1 -108 -13 -102 -9 3 -20 6
-25 6 -4 0 -8 48 -9 106 -2 105 -2 105 21 102 22 -3 23 -7 26 -112z m-61 -18
c-2 -18 -4 -6 -4 27 0 33 2 48 4 33 2 -15 2 -42 0 -60z"/>
<path d="M1991 887 c-14 -43 -12 -50 16 -45 17 3 18 7 8 43 l-12 40 -12 -38z"/>
<path d="M1306 933 c-7 -7 -79 -12 -171 -12 -28 0 -59 -7 -69 -14 -13 -9 -35
-12 -62 -9 -30 3 -51 0 -69 -12 -18 -12 -30 -14 -43 -7 -18 10 -50 -2 -64 -23
-5 -8 -10 -8 -18 0 -8 8 -24 9 -48 3 -30 -6 -38 -5 -50 12 -15 22 -34 24 -65
7 -12 -7 -33 -11 -47 -10 -15 2 -38 -8 -59 -26 -27 -22 -33 -34 -32 -62 1 -19
1 -59 1 -87 0 -46 2 -53 19 -53 11 0 22 4 25 9 3 5 15 7 26 4 11 -3 27 0 35 7
9 7 18 10 22 6 3 -3 17 1 29 9 13 8 30 12 39 9 8 -4 21 -2 28 4 6 5 37 13 67
17 30 4 64 12 75 18 11 6 41 12 67 13 26 1 55 5 65 8 13 4 23 -3 35 -24 10
-18 25 -30 37 -30 20 0 71 46 71 65 0 6 34 11 81 12 44 1 86 7 94 13 7 6 16 7
18 3 7 -11 205 -9 230 2 10 4 23 2 32 -5 8 -6 20 -10 27 -8 7 3 18 -8 25 -23
38 -89 120 -24 131 104 2 29 -1 54 -8 63 -14 16 -73 19 -101 4 -15 -8 -23 -7
-34 4 -18 18 -175 21 -218 4 -21 -8 -31 -8 -40 1 -12 12 -69 15 -81 4z m80
-70 c-7 -51 12 -57 25 -9 12 43 36 64 75 64 37 0 43 -14 24 -62 -7 -21 -6 -27
8 -35 14 -7 18 -5 19 7 1 9 5 33 10 52 9 35 18 39 87 31 5 -1 6 -22 2 -47 -7
-52 11 -58 27 -8 15 45 26 54 68 54 45 0 45 -2 25 -99 -14 -64 -28 -83 -56
-78 -10 2 -15 13 -14 32 1 37 -10 45 -54 38 l-35 -6 6 47 c9 61 -14 59 -27 -1
-8 -41 -9 -41 -52 -41 -24 0 -44 4 -44 10 0 7 -4 7 -12 0 -7 -5 -38 -9 -68 -8
-59 1 -60 3 -46 62 5 19 3 25 -6 22 -7 -3 -17 -26 -22 -51 -7 -36 -14 -47 -28
-47 -13 0 -17 4 -12 13 5 8 3 8 -9 -2 -9 -7 -27 -11 -39 -8 -12 4 -28 1 -35
-5 -9 -7 -17 -7 -26 1 -10 8 -19 6 -35 -10 -12 -11 -22 -26 -22 -34 0 -22 -38
-39 -55 -25 -14 12 -10 40 6 40 4 0 5 -7 2 -17 -4 -10 -2 -14 5 -9 18 11 10
47 -9 41 -10 -3 -20 -1 -24 5 -5 8 -13 6 -26 -6 -10 -9 -25 -14 -35 -10 -9 3
-23 1 -31 -6 -11 -9 -19 -9 -34 0 -17 11 -24 9 -47 -8 -17 -14 -34 -19 -48
-16 -13 4 -26 1 -29 -4 -4 -6 -14 -10 -23 -9 -10 1 -25 -1 -34 -6 -34 -14 -51
2 -45 42 7 41 32 71 65 78 12 2 27 7 32 10 12 8 12 -8 1 -58 -13 -55 8 -44 39
20 14 29 33 54 42 57 15 3 18 -3 18 -41 0 -48 15 -50 25 -4 8 38 27 53 70 58
38 4 38 4 26 -49 -5 -21 -6 -38 -2 -38 13 0 31 24 31 41 0 29 33 57 77 64 l43
7 -9 -29 c-5 -15 -12 -41 -16 -57 -5 -26 -4 -28 9 -17 9 8 16 24 16 36 0 36
32 67 73 71 41 5 43 0 28 -53 -6 -19 -6 -35 -1 -38 11 -7 40 47 40 74 0 15 8
21 33 23 54 6 60 0 53 -49z m-696 -8 c0 -8 -5 -48 -11 -90 -8 -55 -15 -75 -26
-75 -12 0 -14 9 -9 48 l6 47 -21 -52 c-29 -71 -49 -77 -50 -15 l-1 47 -15 -52
c-9 -29 -21 -53 -28 -53 -9 0 -4 23 16 78 16 42 29 82 29 87 -1 21 -30 -30
-30 -52 0 -13 -4 -23 -9 -23 -45 0 14 99 59 100 12 0 15 -12 13 -57 l-3 -58
20 55 c11 30 22 61 25 68 6 17 35 15 35 -3z"/>
<path d="M1450 874 c-13 -32 -13 -54 0 -54 13 0 30 34 30 59 0 29 -19 26 -30
-5z"/>
<path d="M1713 887 c-16 -19 -24 -65 -14 -72 11 -6 20 5 31 45 9 32 -1 48 -17
27z"/>
<path d="M1200 864 c-13 -32 -13 -54 0 -54 13 0 30 34 30 59 0 29 -19 26 -30
-5z"/>
<path d="M1080 844 c-9 -25 -9 -39 -1 -47 11 -11 31 28 31 64 0 31 -18 22 -30
-17z"/>
<path d="M952 835 c-15 -32 -15 -55 -2 -55 11 0 30 42 30 66 0 22 -16 16 -28
-11z"/>
<path d="M743 809 c-18 -22 -26 -66 -14 -74 13 -7 33 40 29 68 -3 17 -5 18
-15 6z"/>
<path d="M842 791 c-13 -36 -9 -52 9 -34 6 6 9 23 7 39 l-3 29 -13 -34z"/>
<path d="M1703 784 c-15 -16 -16 -24 -4 -24 8 0 24 30 19 35 -2 2 -9 -3 -15
-11z"/>
<path d="M2722 760 c0 -14 2 -19 5 -12 2 6 2 18 0 25 -3 6 -5 1 -5 -13z"/>
<path d="M1786 693 c-3 -10 -5 -62 -5 -115 0 -95 1 -98 24 -104 43 -11 60 -1
60 33 0 24 3 29 12 21 7 -6 13 -17 13 -25 0 -35 62 -60 153 -62 l27 -1 0 80
c0 79 0 80 25 80 25 0 25 -1 25 -83 0 -95 15 -122 58 -106 19 7 22 15 22 68 0
33 3 66 6 75 8 21 54 21 54 0 0 -9 -5 -12 -12 -8 -7 5 -8 3 -3 -5 4 -7 3 -23
-3 -34 -6 -12 -15 -38 -21 -57 -10 -30 -9 -37 6 -47 22 -17 48 -16 62 1 15 17
66 6 66 -14 0 -16 41 -40 69 -40 16 0 17 5 11 38 -4 20 -15 63 -26 95 -11 31
-17 70 -14 85 4 21 3 23 -3 7 -9 -19 -9 -19 -17 5 -10 32 -22 40 -62 40 -26 0
-33 -4 -33 -19 0 -11 -4 -23 -10 -26 -6 -4 -10 6 -10 24 0 16 -5 33 -11 36
-16 11 -117 32 -184 40 -33 3 -82 13 -108 20 -26 8 -45 10 -42 5 6 -9 -8 -14
-27 -11 -4 0 -5 -5 -2 -13 3 -8 1 -17 -4 -20 -5 -3 -12 8 -16 24 -5 26 -10 30
-40 30 -24 0 -36 -5 -40 -17z m48 1 c11 -4 16 -19 16 -47 l0 -41 38 37 c29 29
46 37 72 37 l35 -1 -47 -40 -47 -41 44 -66 c24 -36 43 -67 42 -68 -1 -1 -14 0
-29 3 -19 4 -37 20 -59 54 -17 27 -35 46 -40 43 -5 -3 -9 -23 -9 -45 0 -35 -3
-39 -25 -39 l-25 0 0 110 c0 108 3 116 34 104z m210 -30 c13 -5 16 -25 16
-110 0 -57 -4 -104 -9 -104 -37 0 -41 11 -41 116 0 102 3 110 34 98z m121 -22
c67 -15 80 -22 83 -40 3 -19 1 -20 -30 -11 -18 5 -33 9 -33 9 0 0 1 -40 2 -89
l2 -88 -25 5 c-23 4 -24 7 -24 92 l0 88 -35 6 c-26 5 -35 12 -35 26 0 24 -5
24 95 2z m-178 -104 c-3 -36 -5 -39 -11 -20 -5 12 -12 22 -16 22 -4 0 -13 14
-21 31 -12 30 -11 33 17 55 l29 24 3 -35 c2 -19 1 -54 -1 -77z m369 58 c1 -1
15 -46 32 -101 16 -55 33 -108 38 -119 6 -16 4 -17 -17 -11 -25 8 -39 22 -39
42 0 6 -17 17 -37 24 -34 11 -38 10 -50 -8 -13 -19 -53 -22 -53 -5 0 3 16 48
36 99 35 90 37 93 63 87 14 -4 26 -7 27 -8z"/>
<path d="M2317 520 c-9 -44 -9 -44 17 -51 23 -6 23 -6 12 32 -15 51 -22 55
-29 19z"/>
<path d="M1256 629 c-22 -17 -29 -19 -42 -8 -20 17 -79 13 -109 -7 -15 -10
-25 -12 -30 -5 -10 16 -78 13 -103 -5 -19 -13 -22 -13 -22 -1 0 8 -7 20 -15
27 -12 10 -20 9 -39 -4 -14 -8 -27 -24 -31 -35 -5 -16 -10 -18 -23 -10 -12 8
-29 7 -59 -4 -41 -14 -42 -14 -47 9 -7 28 -46 33 -66 9 -9 -11 -16 -12 -25 -5
-17 14 -59 -3 -87 -35 -32 -37 -39 -60 -24 -80 9 -13 10 -27 2 -56 -12 -45 1
-67 31 -54 10 5 27 10 38 11 41 6 80 17 93 27 7 6 38 12 68 13 29 2 63 8 75
14 11 7 28 9 36 6 9 -4 25 -1 37 7 12 7 44 12 71 11 29 -1 60 4 73 13 16 10
27 11 36 4 11 -10 72 -6 106 6 8 3 32 5 52 4 55 -3 80 26 76 91 -2 38 -8 54
-24 65 -18 12 -24 11 -48 -8z m-329 -29 c-3 -11 0 -20 6 -20 9 0 9 -2 1 -8
-13 -8 -36 -83 -29 -91 8 -7 40 31 54 66 10 26 22 35 53 44 22 5 42 8 45 5 3
-3 1 -24 -5 -48 -13 -48 -7 -62 14 -34 8 11 14 15 14 10 0 -24 -28 -47 -50
-41 -12 3 -31 0 -42 -6 -16 -10 -22 -9 -32 5 -11 15 -13 15 -24 -3 -7 -11 -23
-19 -38 -19 -25 0 -26 2 -20 38 14 86 18 98 33 110 23 17 26 15 20 -8z m380
-21 c4 -55 -11 -79 -47 -79 -21 0 -30 5 -30 17 0 14 -3 13 -23 -5 -25 -23 -47
-29 -47 -12 0 6 -7 6 -19 -1 -47 -30 -70 34 -30 85 16 20 29 26 59 26 l38 0
-13 -44 c-8 -24 -11 -47 -7 -50 3 -4 21 10 40 31 33 34 36 33 21 -13 -2 -7 1
-12 6 -13 6 0 10 19 11 42 1 57 1 57 22 57 13 0 18 -10 19 -41z m-591 -6 c-2
-10 -7 -43 -11 -73 -9 -76 -14 -90 -32 -90 -15 0 -14 27 3 88 2 9 -5 -1 -16
-23 -11 -22 -20 -45 -20 -52 0 -7 -10 -17 -22 -24 -21 -11 -21 -10 -15 40 3
28 4 51 2 51 -2 0 -12 -25 -21 -55 -10 -30 -21 -55 -26 -55 -13 0 -10 14 22
96 25 66 26 74 10 59 -11 -10 -20 -29 -20 -42 0 -14 -4 -21 -10 -18 -27 17 14
81 64 99 18 6 18 2 13 -54 -4 -33 -5 -60 -3 -60 2 0 14 29 27 65 17 49 27 65
42 65 13 0 17 -5 13 -17z m115 -59 c-12 -44 -7 -55 14 -28 8 11 15 14 15 7 0
-22 -40 -54 -60 -48 -10 3 -21 1 -25 -5 -3 -5 -15 -10 -26 -10 -15 0 -19 7
-19 38 1 47 27 82 71 91 40 9 44 4 30 -45z"/>
<path d="M996 558 c-20 -28 -21 -58 -2 -58 8 0 17 15 21 36 8 45 2 52 -19 22z"/>
<path d="M1143 588 c-18 -21 -28 -78 -15 -78 17 0 34 38 30 67 -3 23 -5 24
-15 11z"/>
<path d="M770 514 c-13 -32 -13 -54 -1 -54 13 0 17 8 26 48 8 39 -11 44 -25 6z"/>
<path d="M1396 626 c-8 -14 -19 -50 -22 -80 -6 -47 -4 -57 10 -62 10 -4 28 -2
40 4 17 7 27 7 35 -1 8 -8 19 -8 41 0 16 6 32 7 35 3 3 -5 28 -9 55 -8 39 0
53 4 61 19 5 11 8 23 5 27 -3 5 -1 26 4 48 11 45 2 58 -46 67 -21 4 -41 0 -61
-13 -31 -18 -32 -18 -49 1 -26 29 -87 26 -108 -5z m100 -21 c3 -8 1 -28 -4
-45 -9 -24 -8 -30 3 -30 7 0 16 6 18 13 3 7 6 5 6 -5 1 -21 -32 -40 -54 -32
-17 7 -17 33 1 78 5 14 3 17 -7 14 -8 -2 -19 -24 -25 -49 -7 -27 -17 -45 -27
-47 -20 -4 -21 1 -5 67 11 50 12 51 50 51 25 0 41 -5 44 -15z m142 -21 c-5
-20 -7 -45 -5 -56 6 -21 -24 -40 -31 -19 -3 9 -7 9 -17 1 -22 -18 -55 -2 -55
26 0 28 17 65 34 76 6 4 28 8 48 8 l36 0 -10 -36z"/>
<path d="M1582 597 c-16 -19 -25 -64 -14 -71 13 -8 28 13 34 47 6 31 -4 43
-20 24z"/>
<path d="M2315 640 c3 -5 8 -10 11 -10 2 0 4 5 4 10 0 6 -5 10 -11 10 -5 0 -7
-4 -4 -10z"/>
</g>
</svg>
